<svg width="21" height="20" viewBox="0 0 21 20" fill="none" xmlns="http://www.w3.org/2000/svg">
<path d="M9.04357 5.41914C8.93277 5.22757 8.72682 5.1176 8.51177 5.13452L3.88943 5.50422C3.42145 5.54168 3.00459 5.79563 2.74566 6.20107L0.805832 9.23895C0.609517 9.54642 0.57827 9.93116 0.722293 10.2682C0.866278 10.6052 1.16225 10.8401 1.51396 10.8965L5.26204 11.4976C5.2912 11.5022 5.32033 11.5046 5.34922 11.5046C5.54122 11.5045 5.72286 11.4037 5.82839 11.2328L9.03485 6.03891C9.151 5.85072 9.15434 5.61074 9.04357 5.41914Z" fill="#B39E06"/>
<path d="M14.9075 11.4107C14.7199 11.2975 14.4849 11.3009 14.3007 11.4196L9.21532 14.6944C9.02276 14.8184 8.92108 15.0453 8.95602 15.2728L9.54451 19.1009C9.59975 19.4601 9.82972 19.7624 10.1598 19.9095C10.297 19.9706 10.4423 20.0008 10.5869 20.0008C10.79 20.0008 10.9917 19.9412 11.1675 19.8241L14.1419 17.8429C14.5389 17.5785 14.7876 17.1527 14.8242 16.6747L15.1862 11.9538C15.2031 11.7342 15.0951 11.5239 14.9075 11.4107Z" fill="#B39E06"/>
<path d="M7.96428 16.1577C8.19336 16.3917 8.51888 16.5011 8.83841 16.4465C13.5242 15.6463 17.2321 11.6839 18.6438 8.89655C20.2113 5.80145 20.2693 2.53071 20.1874 0.996762C20.1593 0.471129 19.7491 0.0521352 19.2344 0.0234472C17.7325 -0.060187 14.5301 -0.000890588 11.4996 1.60003C8.77042 3.04176 4.89076 6.82878 4.10726 11.6145C4.05385 11.9408 4.16098 12.2733 4.39007 12.5073L7.96428 16.1577Z" fill="#B39E06"/>
<path d="M4.10722 11.6301C4.05398 11.9553 4.16076 12.2866 4.38907 12.5198L7.9512 16.158C8.17951 16.3911 8.50393 16.5002 8.82238 16.4458C9.83855 16.2723 10.8085 15.9494 11.7188 15.522L5.01175 8.67188C4.59325 9.6016 4.27713 10.5923 4.10722 11.6301Z" fill="#B39E06"/>
<path d="M1.19237 16.4601C1.33554 16.4601 1.4788 16.4042 1.58802 16.2926L3.41496 14.4268C3.63349 14.2036 3.63349 13.8418 3.41496 13.6186C3.19647 13.3954 2.84218 13.3954 2.62361 13.6186L0.796712 15.4844C0.578179 15.7076 0.578179 16.0695 0.796712 16.2926C0.905978 16.4043 1.04915 16.4601 1.19237 16.4601Z" fill="#B39E06"/>
<path d="M5.14625 15.3898C4.92552 15.1643 4.56756 15.1643 4.34679 15.3898L0.798391 19.0139C0.57762 19.2394 0.57762 19.6049 0.798391 19.8304C0.908777 19.9432 1.05346 19.9995 1.19814 19.9995C1.34282 19.9995 1.4875 19.9431 1.59785 19.8304L5.14625 16.2063C5.36702 15.9808 5.36702 15.6152 5.14625 15.3898Z" fill="#B39E06"/>
<path d="M6.8759 17.1576C6.6574 16.9344 6.30308 16.9344 6.08455 17.1576L4.25765 19.0235C4.03912 19.2466 4.03912 19.6085 4.25765 19.8317C4.36692 19.9433 4.51013 19.9991 4.65331 19.9991C4.79648 19.9991 4.93973 19.9433 5.04896 19.8317L6.8759 17.9658C7.09443 17.7426 7.09443 17.3808 6.8759 17.1576Z" fill="#B39E06"/>
<path d="M6.17578 14.3091L7.95583 16.1541C8.18401 16.3906 8.50824 16.5012 8.82651 16.446C9.84209 16.27 10.8115 15.9426 11.7213 15.509L8.36969 12.0352L6.17578 14.3091Z" fill="#B39E06"/>
</svg>
