<svg width="25" height="25" viewBox="0 0 25 25" fill="none" xmlns="http://www.w3.org/2000/svg">
<path d="M4.37451 4.72856C4.37451 4.03235 4.65108 3.36466 5.14337 2.87237C5.63566 2.38008 6.30335 2.10352 6.99955 2.10352H17.4997C18.1959 2.10352 18.8636 2.38008 19.3559 2.87237C19.8482 3.36466 20.1248 4.03235 20.1248 4.72856V22.4476C20.1247 22.5663 20.0924 22.6828 20.0314 22.7846C19.9704 22.8864 19.8829 22.9698 19.7783 23.0258C19.6736 23.0818 19.5557 23.1084 19.4371 23.1028C19.3186 23.0971 19.2038 23.0594 19.1049 22.9936L12.2496 19.2989L5.39434 22.9936C5.29551 23.0594 5.1807 23.0971 5.06213 23.1028C4.94356 23.1084 4.82567 23.0818 4.72102 23.0258C4.61636 22.9698 4.52887 22.8864 4.46785 22.7846C4.40683 22.6828 4.37457 22.5663 4.37451 22.4476V4.72856ZM6.99955 3.41604C6.65145 3.41604 6.31761 3.55432 6.07146 3.80047C5.82532 4.04661 5.68703 4.38046 5.68703 4.72856V21.2217L11.8861 17.964C11.9938 17.8923 12.1203 17.8541 12.2496 17.8541C12.379 17.8541 12.5055 17.8923 12.6132 17.964L18.8122 21.2217V4.72856C18.8122 4.38046 18.674 4.04661 18.4278 3.80047C18.1817 3.55432 17.8478 3.41604 17.4997 3.41604H6.99955Z" fill="#282828"/>
</svg>
