<svg width="19" height="19" viewBox="0 0 19 19" fill="none" xmlns="http://www.w3.org/2000/svg">
<path d="M7.71593 8.85204C7.761 8.55462 7.86014 8.29324 7.98632 8.06792C8.1125 7.8426 8.29275 7.65334 8.51807 7.50913C8.73438 7.37394 9.00476 7.31085 9.33824 7.30184C9.54553 7.31085 9.7348 7.3469 9.90604 7.419C10.0863 7.50012 10.2485 7.60827 10.3747 7.74346C10.5009 7.87866 10.6 8.04089 10.6811 8.22114C10.7623 8.4014 10.7983 8.59968 10.8073 8.79796H12.4206C12.4026 8.37436 12.3215 7.98681 12.1683 7.63531C12.015 7.28381 11.8077 6.97738 11.5374 6.72502C11.267 6.47266 10.9425 6.27438 10.564 6.13017C10.1854 5.98597 9.77085 5.92288 9.3112 5.92288C8.72537 5.92288 8.21164 6.02202 7.77902 6.22931C7.34641 6.43661 6.9859 6.70699 6.69749 7.05849C6.40908 7.40999 6.19277 7.81557 6.05758 8.28423C5.92239 8.7529 5.84127 9.23959 5.84127 9.76233V10.0057C5.84127 10.5284 5.91337 11.0151 6.04857 11.4838C6.18376 11.9524 6.40007 12.358 6.68847 12.7005C6.97688 13.043 7.3374 13.3224 7.77001 13.5207C8.20263 13.7189 8.71635 13.8271 9.30219 13.8271C9.72579 13.8271 10.1224 13.755 10.4919 13.6198C10.8614 13.4846 11.1859 13.2953 11.4653 13.052C11.7447 12.8087 11.97 12.5293 12.1322 12.2048C12.2944 11.8803 12.3936 11.5379 12.4026 11.1683H10.7893C10.7803 11.3576 10.7352 11.5288 10.6541 11.6911C10.573 11.8533 10.4648 11.9885 10.3296 12.1057C10.1945 12.2228 10.0412 12.313 9.86098 12.376C9.68974 12.4391 9.50948 12.4572 9.32021 12.4662C8.99575 12.4572 8.72537 12.3941 8.51807 12.2589C8.29275 12.1147 8.1125 11.9254 7.98632 11.7001C7.86014 11.4748 7.761 11.2044 7.71593 10.907C7.67087 10.6095 7.64383 10.3031 7.64383 10.0057V9.76233C7.64383 9.44688 7.67087 9.14946 7.71593 8.85204ZM9.44639 0.866699C4.47133 0.866699 0.433594 4.90443 0.433594 9.8795C0.433594 14.8546 4.47133 18.8923 9.44639 18.8923C14.4215 18.8923 18.4592 14.8546 18.4592 9.8795C18.4592 4.90443 14.4215 0.866699 9.44639 0.866699ZM9.44639 17.0897C5.47175 17.0897 2.23615 13.8541 2.23615 9.8795C2.23615 5.90485 5.47175 2.66926 9.44639 2.66926C13.421 2.66926 16.6566 5.90485 16.6566 9.8795C16.6566 13.8541 13.421 17.0897 9.44639 17.0897Z" fill="white"/>
</svg>
