<svg width="24" height="24" viewBox="0 0 24 24" fill="none" xmlns="http://www.w3.org/2000/svg">
<path d="M3.00003 3H21C21.2652 3 21.5196 3.10536 21.7071 3.29289C21.8947 3.48043 22 3.73478 22 4V20C22 20.2652 21.8947 20.5196 21.7071 20.7071C21.5196 20.8946 21.2652 21 21 21H3.00003C2.73481 21 2.48046 20.8946 2.29292 20.7071C2.10539 20.5196 2.00003 20.2652 2.00003 20V4C2.00003 3.73478 2.10539 3.48043 2.29292 3.29289C2.48046 3.10536 2.73481 3 3.00003 3ZM9.00003 11V9H7.00003V11H5.00003V13H7.00003V15H9.00003V13H11V11H9.00003ZM13 11V13H19V11H13Z" fill="url(#paint0_linear_2125:10982)"/>
<defs>
<linearGradient id="paint0_linear_2125:10982" x1="2.00003" y1="21" x2="22" y2="3" gradientUnits="userSpaceOnUse">
<stop stop-color="#A76DF6"/>
<stop offset="1" stop-color="#6D68F8"/>
</linearGradient>
</defs>
</svg>
