<svg width="17" height="16" viewBox="0 0 17 16" fill="none" xmlns="http://www.w3.org/2000/svg">
<path d="M7.69598 1.62412V0C6.0799 0.160804 4.60854 0.80402 3.41859 1.77688L4.5603 2.92663C5.45276 2.23518 6.52211 1.76884 7.69598 1.62412ZM13.5814 1.77688C12.3915 0.80402 10.9201 0.160804 9.30402 0V1.62412C10.4779 1.76884 11.5472 2.23518 12.4397 2.92663L13.5814 1.77688ZM14.8759 7.19598H16.5C16.3392 5.5799 15.696 4.10854 14.7231 2.91859L13.5734 4.0603C14.2648 4.95276 14.7312 6.02211 14.8759 7.19598ZM3.42663 4.0603L2.27688 2.91859C1.30402 4.10854 0.660804 5.5799 0.5 7.19598H2.12412C2.26884 6.02211 2.73518 4.95276 3.42663 4.0603ZM2.12412 8.80402H0.5C0.660804 10.4201 1.30402 11.8915 2.27688 13.0814L3.42663 11.9317C2.73518 11.0472 2.26884 9.97789 2.12412 8.80402ZM10.9121 8C10.9121 6.66533 9.83467 5.58794 8.5 5.58794C7.16533 5.58794 6.08794 6.66533 6.08794 8C6.08794 9.33467 7.16533 10.4121 8.5 10.4121C9.83467 10.4121 10.9121 9.33467 10.9121 8ZM13.5734 11.9397L14.7231 13.0894C15.696 11.8995 16.3392 10.4201 16.5 8.81206H14.8759C14.7312 9.97789 14.2648 11.0472 13.5734 11.9397ZM9.30402 14.3759V16C10.9201 15.8392 12.3915 15.196 13.5814 14.2231L12.4317 13.0734C11.5472 13.7648 10.4779 14.2312 9.30402 14.3759ZM3.41859 14.2231C4.60854 15.196 6.08794 15.8392 7.69598 16V14.3759C6.52211 14.2312 5.45276 13.7648 4.5603 13.0734L3.41859 14.2231Z" fill="#FF2AC3"/>
</svg>
