<svg width="16" height="16" viewBox="0 0 16 16" fill="none" xmlns="http://www.w3.org/2000/svg">
<g clip-path="url(#clip0_1996:2556)">
<path fill-rule="evenodd" clip-rule="evenodd" d="M16 8C16 3.58206 12.4179 0 8 0C3.58206 0 0 3.58206 0 8C0 11.9927 2.92508 15.3025 6.75012 15.9033V10.3131H4.71832V8H6.75012V6.23708C6.75012 4.23228 7.94488 3.12414 9.7719 3.12414C10.6471 3.12414 11.5629 3.28051 11.5629 3.28051V5.24932H10.5538C9.56041 5.24932 9.24988 5.86583 9.24988 6.4992V7.99994H11.4684L11.114 10.313H9.24982V15.9032C13.0749 15.3035 15.9999 11.9937 15.9999 7.99994L16 8Z" fill="url(#paint0_linear_1996:2556)"/>
<path fill-rule="evenodd" clip-rule="evenodd" d="M11.1144 10.3129L11.4688 7.99982H9.25031V6.49908C9.25031 5.86683 9.55967 5.24921 10.5542 5.24921H11.5634V3.2804C11.5634 3.2804 10.6476 3.12402 9.77233 3.12402C7.94531 3.12402 6.75055 4.23106 6.75055 6.23697V7.99988H4.71875V10.3129H6.75055V15.9032C7.15779 15.9672 7.57517 15.9999 8.00043 15.9999C8.42569 15.9999 8.84308 15.9661 9.25031 15.9032V10.3129H11.1145L11.1144 10.3129Z" fill="#FEFEFE"/>
</g>
<defs>
<linearGradient id="paint0_linear_1996:2556" x1="8" y1="0" x2="8" y2="15.9033" gradientUnits="userSpaceOnUse">
<stop stop-color="#9B7AF0"/>
<stop offset="1" stop-color="#6467F8"/>
</linearGradient>
<clipPath id="clip0_1996:2556">
<rect width="16" height="16" fill="white"/>
</clipPath>
</defs>
</svg>
