<svg width="48" height="48" viewBox="0 0 48 48" fill="none" xmlns="http://www.w3.org/2000/svg">
<path d="M21.5879 4.87236V0C16.7397 0.482412 12.3256 2.41206 8.75578 5.33065L12.1809 8.7799C14.8583 6.70553 18.0663 5.30653 21.5879 4.87236ZM39.2442 5.33065C35.6744 2.41206 31.2603 0.482412 26.4121 0V4.87236C29.9337 5.30653 33.1417 6.70553 35.8191 8.7799L39.2442 5.33065ZM43.1276 21.5879H48C47.5176 16.7397 45.5879 12.3256 42.6693 8.75578L39.2201 12.1809C41.2945 14.8583 42.6935 18.0663 43.1276 21.5879ZM8.7799 12.1809L5.33065 8.75578C2.41206 12.3256 0.482412 16.7397 0 21.5879H4.87236C5.30653 18.0663 6.70553 14.8583 8.7799 12.1809ZM4.87236 26.4121H0C0.482412 31.2603 2.41206 35.6744 5.33065 39.2442L8.7799 35.795C6.70553 33.1417 5.30653 29.9337 4.87236 26.4121ZM31.2362 24C31.2362 19.996 28.004 16.7638 24 16.7638C19.996 16.7638 16.7638 19.996 16.7638 24C16.7638 28.004 19.996 31.2362 24 31.2362C28.004 31.2362 31.2362 28.004 31.2362 24ZM39.2201 35.8191L42.6693 39.2683C45.5879 35.6985 47.5176 31.2603 48 26.4362H43.1276C42.6935 29.9337 41.2945 33.1417 39.2201 35.8191ZM26.4121 43.1276V48C31.2603 47.5176 35.6744 45.5879 39.2442 42.6693L35.795 39.2201C33.1417 41.2945 29.9337 42.6935 26.4121 43.1276ZM8.75578 42.6693C12.3256 45.5879 16.7638 47.5176 21.5879 48V43.1276C18.0663 42.6935 14.8583 41.2945 12.1809 39.2201L8.75578 42.6693Z" fill="#FBFF37"/>
</svg>
