<svg width="24" height="24" viewBox="0 0 24 24" fill="none" xmlns="http://www.w3.org/2000/svg">
<path d="M21.4 24H2.2C1.88174 24 1.57652 23.8736 1.35147 23.6485C1.12643 23.4235 1 23.1183 1 22.8V1.2C1 0.88174 1.12643 0.576515 1.35147 0.351472C1.57652 0.126428 1.88174 0 2.2 0H21.4C21.7183 0 22.0235 0.126428 22.2485 0.351472C22.4736 0.576515 22.6 0.88174 22.6 1.2V22.8C22.6 23.1183 22.4736 23.4235 22.2485 23.6485C22.0235 23.8736 21.7183 24 21.4 24ZM5.8 4.8V9.6H10.6V4.8H5.8ZM5.8 12V14.4H17.8V12H5.8ZM5.8 16.8V19.2H17.8V16.8H5.8ZM13 6V8.4H17.8V6H13Z" fill="url(#paint0_linear_1976:4102)"/>
<defs>
<linearGradient id="paint0_linear_1976:4102" x1="20" y1="5.679e-07" x2="2.5" y2="24" gradientUnits="userSpaceOnUse">
<stop stop-color="#6767F8"/>
<stop offset="1" stop-color="#9B7AF0"/>
</linearGradient>
</defs>
</svg>
