<svg width="19" height="20" viewBox="0 0 19 20" fill="none" xmlns="http://www.w3.org/2000/svg">
<path d="M8.09188 5.41914C7.98527 5.22757 7.78714 5.1176 7.58024 5.13452L3.13315 5.50422C2.68291 5.54168 2.28185 5.79563 2.03275 6.20107L0.16646 9.23895C-0.0224124 9.54642 -0.0524744 9.93116 0.086088 10.2682C0.224614 10.6052 0.509364 10.8401 0.847743 10.8965L4.45372 11.4976C4.48178 11.5022 4.5098 11.5046 4.5376 11.5046C4.72231 11.5045 4.89706 11.4037 4.99859 11.2328L8.08349 6.03891C8.19523 5.85072 8.19844 5.61074 8.09188 5.41914Z" fill="url(#paint0_linear_2378:11424)"/>
<path d="M13.7353 11.4107C13.5548 11.2975 13.3287 11.3009 13.1515 11.4196L8.25894 14.6944C8.07368 14.8184 7.97585 15.0453 8.00947 15.2728L8.57565 19.1009C8.6288 19.4601 8.85005 19.7624 9.16757 19.9095C9.29961 19.9706 9.43942 20.0008 9.57856 20.0008C9.77388 20.0008 9.96795 19.9412 10.1371 19.8241L12.9988 17.8429C13.3807 17.5785 13.62 17.1527 13.6552 16.6747L14.0034 11.9538C14.0197 11.7342 13.9158 11.5239 13.7353 11.4107Z" fill="url(#paint1_linear_2378:11424)"/>
<path d="M7.05874 16.1577C7.27914 16.3917 7.59232 16.5011 7.89974 16.4465C12.4079 15.6463 15.9752 11.6839 17.3333 8.89655C18.8414 5.80145 18.8973 2.53071 18.8184 0.996762C18.7914 0.471129 18.3967 0.0521352 17.9016 0.0234472C16.4566 -0.060187 13.3756 -0.000890588 10.46 1.60003C7.83432 3.04176 4.10175 6.82878 3.34796 11.6145C3.29657 11.9408 3.39965 12.2733 3.62005 12.5073L7.05874 16.1577Z" fill="url(#paint2_linear_2378:11424)"/>
<path d="M3.34792 11.6301C3.2967 11.9553 3.39943 12.2866 3.61908 12.5198L7.04616 16.158C7.26582 16.3911 7.57794 16.5002 7.88432 16.4458C8.86195 16.2723 9.79511 15.9494 10.6709 15.522L4.21815 8.67188C3.81552 9.6016 3.51139 10.5923 3.34792 11.6301Z" fill="#5A55E7"/>
<path d="M0.538341 16.4601C0.67609 16.4601 0.81391 16.4042 0.918997 16.2926L2.67667 14.4268C2.88692 14.2036 2.88692 13.8418 2.67667 13.6186C2.46646 13.3954 2.1256 13.3954 1.91532 13.6186L0.157685 15.4844C-0.0525618 15.7076 -0.0525618 16.0695 0.157685 16.2926C0.262809 16.4043 0.400557 16.4601 0.538341 16.4601Z" fill="url(#paint3_linear_2378:11424)"/>
<path d="M4.34232 15.3898C4.12995 15.1643 3.78557 15.1643 3.57317 15.3898L0.159301 19.0139C-0.0531004 19.2394 -0.0531004 19.6049 0.159301 19.8304C0.265502 19.9432 0.404698 19.9995 0.543894 19.9995C0.683089 19.9995 0.822285 19.9431 0.92845 19.8304L4.34232 16.2063C4.55472 15.9808 4.55472 15.6152 4.34232 15.3898Z" fill="url(#paint4_linear_2378:11424)"/>
<path d="M6.01163 17.1576C5.80142 16.9344 5.46053 16.9344 5.25028 17.1576L3.49265 19.0235C3.2824 19.2466 3.2824 19.6085 3.49265 19.8317C3.59777 19.9433 3.73555 19.9991 3.8733 19.9991C4.01105 19.9991 4.14887 19.9433 4.25396 19.8317L6.01163 17.9658C6.22188 17.7426 6.22188 17.3808 6.01163 17.1576Z" fill="url(#paint5_linear_2378:11424)"/>
<path d="M5.33594 14.3091L7.0485 16.1541C7.26803 16.3906 7.57997 16.5012 7.88617 16.446C8.86325 16.27 9.79586 15.9426 10.6712 15.509L7.44667 12.0352L5.33594 14.3091Z" fill="#4842D3"/>
<ellipse cx="12.0049" cy="7.25649" rx="1.83399" ry="1.94692" fill="white"/>
<defs>
<linearGradient id="paint0_linear_2378:11424" x1="4.0848" y1="5.13281" x2="4.0848" y2="11.5046" gradientUnits="userSpaceOnUse">
<stop stop-color="#6165F8"/>
<stop offset="1" stop-color="#9E7BEF"/>
</linearGradient>
<linearGradient id="paint1_linear_2378:11424" x1="11.004" y1="11.3281" x2="11.004" y2="20.0008" gradientUnits="userSpaceOnUse">
<stop stop-color="#6165F8"/>
<stop offset="1" stop-color="#9E7BEF"/>
</linearGradient>
<linearGradient id="paint2_linear_2378:11424" x1="11.0878" y1="0" x2="11.0878" y2="16.4604" gradientUnits="userSpaceOnUse">
<stop stop-color="#6165F8"/>
<stop offset="1" stop-color="#9E7BEF"/>
</linearGradient>
<linearGradient id="paint3_linear_2378:11424" x1="1.41718" y1="13.4512" x2="1.41718" y2="16.4601" gradientUnits="userSpaceOnUse">
<stop stop-color="#6165F8"/>
<stop offset="1" stop-color="#9E7BEF"/>
</linearGradient>
<linearGradient id="paint4_linear_2378:11424" x1="2.25081" y1="15.2207" x2="2.25081" y2="19.9995" gradientUnits="userSpaceOnUse">
<stop stop-color="#6165F8"/>
<stop offset="1" stop-color="#9E7BEF"/>
</linearGradient>
<linearGradient id="paint5_linear_2378:11424" x1="4.75214" y1="16.9902" x2="4.75214" y2="19.9991" gradientUnits="userSpaceOnUse">
<stop stop-color="#6165F8"/>
<stop offset="1" stop-color="#9E7BEF"/>
</linearGradient>
</defs>
</svg>
