<svg width="16" height="16" viewBox="0 0 16 16" fill="none" xmlns="http://www.w3.org/2000/svg">
<g clip-path="url(#clip0_1996:2560)">
<path d="M8 16C12.4183 16 16 12.4183 16 8C16 3.58172 12.4183 0 8 0C3.58172 0 0 3.58172 0 8C0 12.4183 3.58172 16 8 16Z" fill="url(#paint0_linear_1996:2560)"/>
<path d="M6.53346 11.6666C6.27426 11.6666 6.31833 11.5687 6.22893 11.3219L5.4668 8.81372L11.3335 5.33325" fill="#C8DAEA"/>
<path d="M6.5332 11.6667C6.7332 11.6667 6.82154 11.5753 6.9332 11.4667L7.99987 10.4295L6.66934 9.6272" fill="#A9C9DD"/>
<path d="M6.66981 9.62735L9.89381 12.0093C10.2617 12.2123 10.5272 12.1071 10.6189 11.6677L11.9312 5.48355C12.0655 4.94488 11.7259 4.70048 11.3739 4.86028L3.66787 7.83168C3.14187 8.04268 3.14501 8.33615 3.57201 8.46688L5.54954 9.08415L10.1277 6.19581C10.3439 6.06475 10.5423 6.13515 10.3795 6.27968" fill="url(#paint1_linear_1996:2560)"/>
</g>
<defs>
<linearGradient id="paint0_linear_1996:2560" x1="10.672" y1="2.672" x2="6.67201" y2="12" gradientUnits="userSpaceOnUse">
<stop stop-color="#6A69F8"/>
<stop offset="1" stop-color="#9979F1"/>
</linearGradient>
<linearGradient id="paint1_linear_1996:2560" x1="9.0034" y1="8.00065" x2="10.2519" y2="10.8452" gradientUnits="userSpaceOnUse">
<stop stop-color="#EFF7FC"/>
<stop offset="1" stop-color="white"/>
</linearGradient>
<clipPath id="clip0_1996:2560">
<rect width="16" height="16" fill="white"/>
</clipPath>
</defs>
</svg>
