<svg width="16" height="16" viewBox="0 0 16 16" fill="none" xmlns="http://www.w3.org/2000/svg">
<path d="M14.362 4.56982C14.3717 4.71088 14.3717 4.85193 14.3717 4.99428C14.3717 9.3318 11.0697 14.3343 5.03173 14.3343V14.3317C3.2481 14.3343 1.50152 13.8234 0 12.8601C0.259354 12.8913 0.520008 12.9069 0.781312 12.9075C2.25944 12.9088 3.69531 12.4128 4.85818 11.4996C3.4535 11.4729 2.22173 10.5571 1.79143 9.22C2.28349 9.3149 2.79049 9.2954 3.27345 9.16345C1.74203 8.85404 0.64026 7.50852 0.64026 5.9459C0.64026 5.9316 0.64026 5.91795 0.64026 5.90429C1.09657 6.15845 1.60748 6.2995 2.13008 6.3151C0.687711 5.35114 0.243104 3.43231 1.11412 1.93208C2.78074 3.98286 5.23973 5.22958 7.87942 5.36154C7.61487 4.22142 7.97627 3.0267 8.82909 2.22524C10.1512 0.982417 12.2306 1.04612 13.4734 2.36759C14.2086 2.22264 14.9132 1.95288 15.558 1.57068C15.3129 2.33054 14.8001 2.976 14.115 3.38616C14.7656 3.30945 15.4013 3.13525 16 2.8694C15.5593 3.52981 15.0042 4.10507 14.362 4.56982Z" fill="url(#paint0_linear_1996:2566)"/>
<defs>
<linearGradient id="paint0_linear_1996:2566" x1="8" y1="1.33325" x2="8" y2="14.3343" gradientUnits="userSpaceOnUse">
<stop stop-color="#9979F1"/>
<stop offset="1" stop-color="#6A69F8"/>
</linearGradient>
</defs>
</svg>
