<svg width="21" height="20" viewBox="0 0 21 20" fill="none" xmlns="http://www.w3.org/2000/svg">
<g clip-path="url(#clip0_2289:11289)">
<path d="M19.7221 16.2273L12.0055 2.02732C11.8519 1.74431 11.6247 1.50802 11.348 1.34337C11.0713 1.17871 10.7552 1.0918 10.4332 1.0918C10.1112 1.0918 9.79522 1.17871 9.5185 1.34337C9.24178 1.50802 9.01463 1.74431 8.86103 2.02732L1.14991 16.2273C0.997428 16.5004 0.919183 16.8086 0.922984 17.1213C0.926784 17.434 1.0125 17.7403 1.17157 18.0095C1.33065 18.2788 1.55754 18.5016 1.8296 18.6558C2.10167 18.81 2.40941 18.8902 2.72214 18.8884H18.1499C18.4595 18.8881 18.7636 18.8075 19.0327 18.6544C19.3017 18.5013 19.5265 18.2811 19.6849 18.0152C19.8433 17.7492 19.9301 17.4467 19.9366 17.1373C19.9431 16.8278 19.8692 16.5219 19.7221 16.2495V16.2273ZM9.72214 5.55509C9.72214 5.34881 9.80408 5.15098 9.94994 5.00512C10.0958 4.85926 10.2936 4.77732 10.4999 4.77732C10.7062 4.77732 10.904 4.85926 11.0499 5.00512C11.1957 5.15098 11.2777 5.34881 11.2777 5.55509V12.2218C11.2777 12.428 11.1957 12.6259 11.0499 12.7717C10.904 12.9176 10.7062 12.9995 10.4999 12.9995C10.2936 12.9995 10.0958 12.9176 9.94994 12.7717C9.80408 12.6259 9.72214 12.428 9.72214 12.2218V5.55509ZM10.4999 16.5829C10.3021 16.5829 10.1088 16.5242 9.94435 16.4143C9.7799 16.3045 9.65172 16.1483 9.57604 15.9656C9.50035 15.7828 9.48055 15.5818 9.51913 15.3878C9.55772 15.1938 9.65296 15.0156 9.79281 14.8758C9.93266 14.7359 10.1108 14.6407 10.3048 14.6021C10.4988 14.5635 10.6999 14.5833 10.8826 14.659C11.0653 14.7347 11.2215 14.8629 11.3314 15.0273C11.4413 15.1918 11.4999 15.3851 11.4999 15.5829C11.4999 15.7142 11.474 15.8442 11.4238 15.9656C11.3735 16.0869 11.2999 16.1971 11.207 16.29C11.1142 16.3828 11.0039 16.4565 10.8826 16.5068C10.7613 16.557 10.6312 16.5829 10.4999 16.5829Z" fill="#F4C31C"/>
</g>
<defs>
<clipPath id="clip0_2289:11289">
<rect width="20" height="20" fill="white" transform="translate(0.5)"/>
</clipPath>
</defs>
</svg>
